PathFileType	4	(X/Y/Z)	c:/Users/goper/Files/vsCode/490R/osim_files/C10/C10_SSWS_05.trc
DataRate	CameraRate	NumFrames	NumMarkers	Units                	OrigDataRate	OrigDataStartFrame	OrigNumFrames
250.00	250.00	5	36	mm	250.0	844	2250
                Frame#	Time	LPSIS			LASIS			LTH1			LTH2			LTH3			LTH4			LLFE			LMFE			LSH1			LSH2			LSH3			LSH4			LLMAL			LMMAL			LCAL			LMTP5			LTOE			LMTP1			RPSIS			RASIS			RTH1			RTH2			RTH3			RTH4			RLFE			RMFE			RSH1			RSH2			RSH3			RSH4			RLMAL			RMMAL			RCAL			RMTP1			RTOE			RMTP5		
		X1	Y1	Z1	X2	Y2	Z2	X3	Y3	Z3	X4	Y4	Z4	X5	Y5	Z5	X6	Y6	Z6	X7	Y7	Z7	X8	Y8	Z8	X9	Y9	Z9	X10	Y10	Z10	X11	Y11	Z11	X12	Y12	Z12	X13	Y13	Z13	X14	Y14	Z14	X15	Y15	Z15	X16	Y16	Z16	X17	Y17	Z17	X18	Y18	Z18	X19	Y19	Z19	X20	Y20	Z20	X21	Y21	Z21	X22	Y22	Z22	X23	Y23	Z23	X24	Y24	Z24	X25	Y25	Z25	X26	Y26	Z26	X27	Y27	Z27	X28	Y28	Z28	X29	Y29	Z29	X30	Y30	Z30	X31	Y31	Z31	X32	Y32	Z32	X33	Y33	Z33	X34	Y34	Z34	X35	Y35	Z35	X36	Y36	Z36

844	3.37200	1229.27478	1014.82513	254.69125	1085.35962	994.11426	403.86008	1186.44153	784.38733	442.49350	1164.22815	724.75287	437.24402	1105.66858	768.51080	430.64957	1116.32678	722.57562	423.52173	1211.23364	483.02649	359.00748	1200.25427	477.59280	241.95210	1276.82788	411.21011	362.89670	1323.70630	386.50473	364.69345	1228.58569	381.90207	343.18802	955.58429	434.09448	306.90112	1317.61121	94.21805	306.69495	0.00000	0.00000	0.00000	1385.49036	46.71476	264.48804	1215.36328	32.92076	325.69977	1161.37537	51.13604	263.65897	1198.97717	29.02191	215.15820	1224.63794	1004.99554	175.10863	1064.33398	981.47107	69.60529	1058.29163	711.77844	28.00384	1033.33813	678.93237	30.03256	1011.80713	742.17328	25.99556	987.86121	708.67987	28.95603	905.88202	501.97449	98.52296	878.75677	509.32779	208.43086	957.93311	401.07498	100.01460	943.46967	356.90182	99.50294	896.19922	412.12439	92.69090	894.95270	370.28177	89.56559	859.10449	104.26051	140.66672	833.51398	121.47084	219.39114	892.22797	41.20674	189.91718	701.81274	80.63258	178.51836	685.02692	111.46693	149.79800	737.04590	82.98239	94.96845
845	3.37600	1224.05017	1014.34619	254.25139	1080.78198	993.20917	403.87369	1182.94556	783.99353	442.17197	1163.38098	724.77515	437.28641	1104.66467	767.53223	430.76599	1111.54663	722.62708	423.76935	1209.00562	482.87494	358.97617	1197.61609	477.22845	241.88841	1274.97156	411.37119	362.67496	1322.13037	386.75107	364.41653	1228.43066	380.67215	342.11185	946.82599	436.39566	302.42383	1317.40344	94.65969	306.51443	0.00000	0.00000	0.00000	1385.68127	47.46912	264.00699	1215.57715	33.33178	326.36124	1161.28931	51.09425	263.72491	1198.98279	29.10902	215.00833	1219.15210	1004.44391	174.61333	1058.43726	980.41406	69.68019	1054.52869	710.82733	28.18322	1029.00757	677.43054	30.21452	1006.86047	741.08740	26.01721	983.28906	706.86462	28.96826	901.71710	500.80521	98.58072	874.43787	508.10880	209.04474	950.47467	398.70920	99.71309	935.43768	355.27643	98.78890	889.11212	411.39755	93.65670	886.66821	369.41687	89.70337	844.33496	104.21178	140.42464	819.86261	121.90501	219.50052	876.31000	39.93294	189.21115	686.82666	84.06252	179.67604	670.15430	115.69674	151.27759	721.44434	86.30849	96.00389
846	3.38000	1218.82324	1013.80078	253.81912	1076.01208	992.34277	403.88104	1179.49341	783.66791	441.85764	1158.16785	724.31421	437.19571	1098.93555	767.63202	430.88284	1108.21362	722.20416	423.99789	1206.77844	482.73657	358.90793	1194.86108	476.84674	241.83237	1273.13000	411.53839	362.37732	1320.42932	386.92429	364.09708	1228.16113	379.45938	341.25034	940.98260	438.27795	298.84070	1317.17053	95.13091	306.27466	0.00000	0.00000	0.00000	1385.87793	48.29326	263.49817	1215.97998	32.69110	326.14960	1161.25720	50.99782	263.76733	1198.98523	29.20078	214.92703	1213.63354	1003.85059	174.11423	1052.49121	979.30988	69.77542	1051.82776	710.91034	27.13911	1024.71533	675.83203	30.46061	1001.91968	739.95490	26.04646	978.82648	704.93738	29.02818	897.04688	499.35342	98.92500	870.62433	507.00955	209.83989	943.07355	395.20966	100.00399	926.83057	353.29758	98.23795	881.87897	410.61160	93.98816	878.30292	368.61578	89.90199	829.85925	104.37164	140.16843	806.88306	122.29394	219.47986	860.66937	39.16832	188.32442	672.26575	88.09168	181.05357	656.56964	120.06974	153.05464	706.20209	89.77099	97.09522
847	3.38400	1213.55603	1013.26965	253.36037	1071.29431	991.38660	403.84796	1175.84570	783.25531	441.46777	1155.02063	724.12970	437.11835	1103.61743	765.62085	432.02859	1105.38635	721.56744	424.24442	1204.48010	482.58395	358.89261	1191.76917	476.25821	241.91139	1271.98267	412.04907	361.94235	1318.91040	387.33746	363.84216	1228.25500	378.50180	341.06018	937.87634	439.76285	296.10446	1316.90930	95.53304	306.07327	0.00000	0.00000	0.00000	1386.01685	49.11283	263.01581	1216.54517	32.82500	326.20840	1161.02588	50.69033	264.02655	1198.93347	29.29281	214.75818	1208.10657	1003.26892	173.58966	1046.55371	978.18683	69.78759	1047.30774	709.50586	27.38132	1020.45746	674.20270	30.64158	996.98352	738.77582	26.08368	974.37781	702.90997	29.05904	891.65045	497.50644	99.61743	866.35846	505.31876	210.48289	935.37018	392.68805	99.50036	918.18292	351.43347	97.49873	874.56580	409.88779	94.29352	870.26721	367.92508	89.54472	815.70392	104.65816	140.00389	794.11017	122.84599	219.62935	845.47766	38.43903	187.58311	658.33246	92.25027	182.75577	643.08289	124.48743	154.81738	690.10443	93.05273	98.21183
848	3.38800	1208.24292	1012.73041	252.91844	1062.59070	990.79327	403.47577	1172.38562	783.08026	441.19046	1153.78381	724.18890	437.07272	1092.24438	766.48602	431.18225	1102.15881	720.99823	424.47116	1193.21570	484.51810	357.67953	1189.15869	476.07352	241.76286	1270.06714	412.37360	361.57486	1317.15063	387.59576	363.49490	1227.79736	377.33475	340.48499	937.33020	440.87201	294.16803	1315.54407	96.02417	305.80612	0.00000	0.00000	0.00000	1386.03418	49.85351	262.61401	1216.52710	33.41276	326.48120	1161.01184	50.58927	264.01666	1198.86304	29.36647	214.64853	1202.59241	1002.60803	173.02754	1040.56262	977.07904	69.81505	1042.84766	708.08807	27.62425	1016.22595	672.54022	30.85614	992.05090	737.55035	26.12925	969.97473	700.83612	29.07458	886.72400	496.05344	99.90669	862.52576	503.71814	211.20924	927.64105	390.50635	98.53281	909.45380	349.63901	96.74265	866.65735	408.83212	94.79989	861.81653	367.30588	89.57828	801.92828	105.06131	139.79823	781.67072	123.49404	219.95111	830.79407	37.89794	186.84782	644.91553	96.07925	184.32350	630.08618	128.77014	156.66011	675.70422	96.43399	99.34510
